<mxfile host="app.diagrams.net" modified="2021-04-24T09:57:40.808Z" agent="5.0 (Windows NT 10.0; Win64; x64) AppleWebKit/537.36 (KHTML, like Gecko) Chrome/89.0.4389.114 Safari/537.36" etag="QLZH5i-N-DN7OZWCsdLv" version="14.6.1" type="github">
  <diagram id="d55_aAFDaBR0DB5hET2P" name="Page-1">
    <mxGraphModel dx="2031" dy="1009" grid="1" gridSize="10" guides="1" tooltips="1" connect="1" arrows="1" fold="1" page="1" pageScale="1" pageWidth="2339" pageHeight="3300" math="0" shadow="0">
      <root>
        <mxCell id="0" />
        <mxCell id="1" parent="0" />
        <mxCell id="RcFTLjD56hVW02-64F9A-2" value="&lt;font style=&quot;font-size: 30px&quot;&gt;开始&lt;/font&gt;" style="rounded=1;whiteSpace=wrap;html=1;" vertex="1" parent="1">
          <mxGeometry x="680" y="550" width="230" height="110" as="geometry" />
        </mxCell>
        <mxCell id="RcFTLjD56hVW02-64F9A-3" value="&lt;font style=&quot;font-size: 30px&quot;&gt;读取数据&lt;/font&gt;" style="rounded=0;whiteSpace=wrap;html=1;" vertex="1" parent="1">
          <mxGeometry x="675" y="750" width="240" height="90" as="geometry" />
        </mxCell>
        <mxCell id="RcFTLjD56hVW02-64F9A-4" value="&lt;span style=&quot;font-size: 30px&quot;&gt;是否为文本文件&lt;/span&gt;" style="rhombus;whiteSpace=wrap;html=1;" vertex="1" parent="1">
          <mxGeometry x="665" y="910" width="260" height="140" as="geometry" />
        </mxCell>
        <mxCell id="RcFTLjD56hVW02-64F9A-6" value="&lt;span style=&quot;font-size: 30px&quot;&gt;上传文件&lt;br&gt;至服务器&lt;/span&gt;" style="rounded=0;whiteSpace=wrap;html=1;" vertex="1" parent="1">
          <mxGeometry x="970" y="1090" width="240" height="90" as="geometry" />
        </mxCell>
        <mxCell id="RcFTLjD56hVW02-64F9A-7" value="&lt;font style=&quot;font-size: 30px&quot;&gt;结束&lt;/font&gt;" style="rounded=1;whiteSpace=wrap;html=1;" vertex="1" parent="1">
          <mxGeometry x="975" y="1550" width="230" height="110" as="geometry" />
        </mxCell>
        <mxCell id="RcFTLjD56hVW02-64F9A-8" value="" style="endArrow=classic;html=1;exitX=0.5;exitY=1;exitDx=0;exitDy=0;" edge="1" parent="1" source="RcFTLjD56hVW02-64F9A-2" target="RcFTLjD56hVW02-64F9A-3">
          <mxGeometry width="50" height="50" relative="1" as="geometry">
            <mxPoint x="490" y="700" as="sourcePoint" />
            <mxPoint x="540" y="650" as="targetPoint" />
          </mxGeometry>
        </mxCell>
        <mxCell id="RcFTLjD56hVW02-64F9A-9" value="" style="endArrow=classic;html=1;exitX=0.5;exitY=1;exitDx=0;exitDy=0;entryX=0.5;entryY=0;entryDx=0;entryDy=0;" edge="1" parent="1" source="RcFTLjD56hVW02-64F9A-3" target="RcFTLjD56hVW02-64F9A-4">
          <mxGeometry width="50" height="50" relative="1" as="geometry">
            <mxPoint x="460" y="810" as="sourcePoint" />
            <mxPoint x="510" y="760" as="targetPoint" />
          </mxGeometry>
        </mxCell>
        <mxCell id="RcFTLjD56hVW02-64F9A-10" value="" style="endArrow=classic;html=1;entryX=0;entryY=0.5;entryDx=0;entryDy=0;exitX=0;exitY=0.5;exitDx=0;exitDy=0;" edge="1" parent="1" source="RcFTLjD56hVW02-64F9A-4" target="RcFTLjD56hVW02-64F9A-3">
          <mxGeometry width="50" height="50" relative="1" as="geometry">
            <mxPoint x="400" y="970" as="sourcePoint" />
            <mxPoint x="530" y="1160" as="targetPoint" />
            <Array as="points">
              <mxPoint x="530" y="980" />
              <mxPoint x="530" y="795" />
            </Array>
          </mxGeometry>
        </mxCell>
        <mxCell id="RcFTLjD56hVW02-64F9A-11" value="" style="endArrow=classic;html=1;exitX=1;exitY=0.5;exitDx=0;exitDy=0;entryX=0.5;entryY=0;entryDx=0;entryDy=0;" edge="1" parent="1" source="RcFTLjD56hVW02-64F9A-4" target="RcFTLjD56hVW02-64F9A-6">
          <mxGeometry width="50" height="50" relative="1" as="geometry">
            <mxPoint x="390" y="830" as="sourcePoint" />
            <mxPoint x="440" y="780" as="targetPoint" />
            <Array as="points">
              <mxPoint x="1090" y="980" />
            </Array>
          </mxGeometry>
        </mxCell>
        <mxCell id="RcFTLjD56hVW02-64F9A-12" value="" style="endArrow=classic;html=1;exitX=0.5;exitY=1;exitDx=0;exitDy=0;entryX=0.5;entryY=0;entryDx=0;entryDy=0;" edge="1" parent="1" source="RcFTLjD56hVW02-64F9A-6" target="RcFTLjD56hVW02-64F9A-7">
          <mxGeometry width="50" height="50" relative="1" as="geometry">
            <mxPoint x="670" y="1420" as="sourcePoint" />
            <mxPoint x="720" y="1370" as="targetPoint" />
          </mxGeometry>
        </mxCell>
        <mxCell id="RcFTLjD56hVW02-64F9A-15" value="&lt;font style=&quot;font-size: 30px&quot;&gt;是&lt;/font&gt;" style="text;html=1;align=center;verticalAlign=middle;resizable=0;points=[];autosize=1;strokeColor=none;" vertex="1" parent="1">
          <mxGeometry x="1000" y="940" width="50" height="30" as="geometry" />
        </mxCell>
        <mxCell id="RcFTLjD56hVW02-64F9A-16" value="&lt;font style=&quot;font-size: 30px&quot;&gt;否&lt;/font&gt;" style="text;html=1;align=center;verticalAlign=middle;resizable=0;points=[];autosize=1;strokeColor=none;" vertex="1" parent="1">
          <mxGeometry x="460" y="850" width="50" height="30" as="geometry" />
        </mxCell>
        <mxCell id="RcFTLjD56hVW02-64F9A-19" value="&lt;span style=&quot;font-size: 30px&quot;&gt;服务器调用模型&lt;br&gt;得到计算结果&lt;/span&gt;" style="rounded=0;whiteSpace=wrap;html=1;" vertex="1" parent="1">
          <mxGeometry x="940" y="1210" width="305" height="170" as="geometry" />
        </mxCell>
        <mxCell id="RcFTLjD56hVW02-64F9A-20" value="&lt;span style=&quot;font-size: 30px&quot;&gt;&amp;nbsp;将计算结果&lt;br&gt;返回前台&lt;/span&gt;" style="rounded=0;whiteSpace=wrap;html=1;" vertex="1" parent="1">
          <mxGeometry x="972.5" y="1410" width="240" height="90" as="geometry" />
        </mxCell>
      </root>
    </mxGraphModel>
  </diagram>
</mxfile>
